# xmcd
#
# Track frame offsets:
#       150
#       18744
#       32368
#       48489
#       64884
#       82920
#       100872
#       118469
#       137103
#       155411
#       169701
#       184362
#
# Disc length: 2666 seconds
#
# Revision: 0
# Processed by: cddbd v1.4PL0 Copyright (c) Steve Scherf et al.
# Submitted via: CD-DA_X-Tractor v0.23
#
DISCID=a20a680c
DTITLE=Lone Blume - Pray For Rain
DYEAR=2001
DGENRE=Pop
TTITLE0=You've Never Crossed My Mind
TTITLE1=The French Song
TTITLE2=Pray For Rain
TTITLE3=All I Have To Do Is Dream
TTITLE4=A Mother's Song
TTITLE5=Not That Different
TTITLE6=Don't Color Me Blue
TTITLE7=If I Were You
TTITLE8=Winners And Losers
TTITLE9=In This Life
TTITLE10=Read 'Em And Weep
TTITLE11=Light At The End Of The Tunnel
EXTD=
EXTT0=
EXTT1=
EXTT2=
EXTT3=
EXTT4=
EXTT5=
EXTT6=
EXTT7=
EXTT8=
EXTT9=
EXTT10=
EXTT11=
PLAYORDER=
